<?xml version="1.0" encoding="UTF-8"?>
<svg id="Layer_2" data-name="Layer 2" xmlns="http://www.w3.org/2000/svg" viewBox="0 0 851.18 158.97">
  <defs>
    <style>
      .cls-1, .cls-2 {
        fill-rule: evenodd;
      }

      .cls-1, .cls-3 {
        fill: #e4282c;
      }

      .cls-2, .cls-4 {
        fill: #28643b;
      }
    </style>
  </defs>
  <g id="Layer_1-2" data-name="Layer 1">
    <g id="_Слой_1" data-name="Слой_1">
      <g id="_2917599879408" data-name=" 2917599879408">
        <g>
          <path class="cls-4" d="M321.88,114.5h17.02v-2.53l-30.74-66.43h-7.49l-30.64,66.43v2.53h17.02l3.99-8.56h26.84l3.99,8.56h0ZM312.25,91.05h-15.56l7.68-17.9,7.88,17.9h0ZM375.18,93.1l12.94,21.4h18.29v-2.63l-22.08-33.46,19.65-29.37v-2.63h-17.51l-11.38,17.7h-.49l-11.09-17.7h-17.8v2.63l19.65,29.37-21.98,33.46v2.63h18.19l13.03-21.4h.58ZM433.73,46.41h-17.51v68.08h42.21v-15.66h-24.71v-52.43ZM512.9,46.41h-42.5v68.08h43.38v-15.46h-26.07v-11.96h23.15v-15.47h-23.15v-9.63h25.19v-15.56h0Z"/>
          <path class="cls-3" d="M568.34,92.42v-15.56h-21.88v-14.88h24.71v-15.56h-42.41v68.08h17.7v-22.08h21.88,0ZM650.24,80.55c0-47.07-69.83-47.07-69.83,0s69.83,47.17,69.83,0ZM598.3,80.55c0-24.51,34.14-24.51,34.14,0s-34.14,24.71-34.14,0ZM707.53,90.37c17.22-11.67,12.35-43.86-14.4-43.96h-29.86v68.08h17.41v-20.04h9.05l11.67,20.04h19.45v-2.53l-13.32-21.59h0ZM693.13,78.99h-12.45v-17.02c4.09,0,8.36-.1,12.45,0,9.92.1,9.43,17.02,0,17.02ZM727.27,80.45c.1,23.15,17.6,34.82,34.92,34.72,14.49,0,29.76-7.59,32.29-26.84h-17.12c-1.85,7.29-7.78,10.99-15.17,10.99-10.31-.1-16.92-8.85-16.92-18.87,0-11.28,6.71-18.97,16.92-18.97,7.29,0,12.45,3.11,14.88,10.02h17.12c-2.63-18.19-17.9-25.87-32-25.87-17.31,0-34.82,11.67-34.92,34.82h0ZM850.31,46.41h-42.5v68.08h43.38v-15.46h-26.07v-11.96h23.15v-15.47h-23.15v-9.63h25.19v-15.56h0Z"/>
        </g>
        <path class="cls-2" d="M157.94,114.66c1.22-7.13,5.3-32.08,8.74-53.39,2.48-15.37,4.3-29.01,5.98-31.92,1.91-3.32,5.42-5.17,12.27-2.97,8.33,2.68,16.82,5.14,25.47,8.08,11.13,3.77,16.35,4.79,19.63,16.52,1.98,7.08,4.63,24.88,5.03,31.94.35,6.01-1.87,27.89-4.16,36.49-2.41,9.05-11.5,16-21.11,16.79-.83,4.06-2.65,8.13-5.46,11.8-8.53,11.11-23,14.32-32.31,7.16-5.64-4.33-8.1-11.46-7.27-18.88h-58.36c-.85,4-2.65,8-5.42,11.61-8.53,11.11-23,14.32-32.32,7.16-5.61-4.31-8.08-11.39-7.29-18.77h-12.09c-.85,4-2.65,8-5.42,11.61-8.53,11.11-23,14.32-32.31,7.16-5.61-4.31-8.08-11.39-7.29-18.77h-.15s-.1-.08-.14-.11c-3-2.24-4.41-5.98-3.81-9.56.56-3.31,4.75-9.33,6.32-12.01,50.52.02,101.02.04,151.48.06h0ZM183.31,71.57c1.53-9.5,2.66-17.93,3.69-19.72,1.18-2.05,3.35-3.2,7.58-1.84,5.15,1.65,1.38.36,6.73,2.18,6.88,2.33,10.1,2.96,12.13,10.21,1.22,4.38,2.86,15.38,3.11,19.74.21,3.72-1.15,17.23-2.57,22.55-1.49,5.6-7.11,9.89-13.04,10.38v.05c-11.78,0-5.48-.05-18.3-.05h0s-6.49,0-6.49,0c2.64-15.44,4.66-28.02,7.16-43.49h0ZM193.31,127.41c-3.54-2.72-9.03-1.5-12.27,2.72-3.24,4.22-2.99,9.84.54,12.55,3.54,2.72,9.03,1.5,12.27-2.72,3.24-4.22,2.99-9.84-.54-12.55ZM32.82,127.3c-3.54-2.72-9.03-1.5-12.27,2.72-3.24,4.22-2.99,9.84.54,12.55,3.54,2.72,9.03,1.5,12.27-2.72,3.24-4.22,2.99-9.84-.55-12.55ZM89.94,127.3c-3.54-2.72-9.03-1.5-12.27,2.72-3.24,4.22-2.99,9.84.54,12.55,3.54,2.72,9.03,1.5,12.27-2.72,3.24-4.22,2.99-9.84-.55-12.55Z"/>
        <path class="cls-1" d="M69.85,84.41h42.05l-.16-.27,11.46-19.44,14.48,24.57c2.76,4.67,1.18,10.75-3.49,13.5h0c-1.54.91-3.24,1.35-4.91,1.36H58.23l9.04-15.34,2.58-4.38h0ZM110.32,42.83h22.39s11.62-19.71,11.62-19.71l11.97,20.37c-2.39,4.06-6.38,10.82-8.82,14.97-3.18,5.39-5.48,6.23-14.46,6.23h-9.8,0s-22.92,0-22.92,0h0s-18.8,0-18.8,0l9.41-15.94v-.02s3.47-5.9,3.47-5.9h15.96s0,0,0,0ZM79.43,29.31l-.02-.04-35.26,59.83c-.11.19-.23.37-.35.55l-5.66,9.61c-2.76,4.67-8.83,6.24-13.5,3.49h0c-4.67-2.75-6.24-8.83-3.49-13.5L64.9,15c.11-.19.23-.37.35-.55l5.66-9.61c2.75-4.67,8.83-6.24,13.5-3.49h0c1.04.61,1.92,1.39,2.64,2.28l.12.14.04.05.11.14c.21.29.41.58.6.9l5.66,9.61c.12.18.24.36.35.55l4.76,8.09h-15.62s-3.65,6.2-3.65,6.2h0Z"/>
      </g>
    </g>
  </g>
</svg>